<?xml version="1.0" standalone="no"?>
<!DOCTYPE svg PUBLIC "-//W3C//DTD SVG 1.1//EN" "http://www.w3.org/Graphics/SVG/1.1/DTD/svg11.dtd" >
<svg xmlns="http://www.w3.org/2000/svg">
<metadata></metadata>
<defs>
<font id="nokia_cellphone_fcsmall" horiz-adv-x="1536" >
<font-face units-per-em="2048" ascent="1638" descent="-410" />
<missing-glyph horiz-adv-x="768" />
<glyph horiz-adv-x="0" />
<glyph unicode="&#xd;" horiz-adv-x="768" />
<glyph unicode=" "  horiz-adv-x="768" />
<glyph unicode="&#x09;" horiz-adv-x="768" />
<glyph unicode="&#xa0;" horiz-adv-x="768" />
<glyph unicode="!" horiz-adv-x="768" d="M0 0v256h512v-256h-512zM0 512v1280h512v-1280h-512z" />
<glyph unicode="&#x22;" horiz-adv-x="1024" d="M0 1280v512h256v-512h-256zM512 1280v512h256v-512h-256z" />
<glyph unicode="#" d="M0 256v512h256v256h-256v512h256v256h256v-256h256v256h256v-256h256v-512h-256v-256h256v-512h-256v-256h-256v256h-256v-256h-256v256h-256zM512 768h256v256h-256v-256z" />
<glyph unicode="$" d="M0 0v256h256v512h-256v512h256v512h256v-256h256v256h256v-256h256v-256h-256v-512h256v-512h-256v-512h-256v256h-256v-256h-256v256h-256zM512 256h256v256h-256v-256zM512 1024h256v256h-256v-256z" />
<glyph unicode="%" horiz-adv-x="1792" d="M0 1280v512h512v-512h-512zM256 0v512h256v512h256v512h256v256h256v-517h-256v-507h-256v-512h-256v-256h-256zM1024 0v512h512v-512h-512z" />
<glyph unicode="&#x26;" horiz-adv-x="1792" d="M0 256v768h256v256h-256v256h256v256h768v-256h256v-256h-256v-512h256v256h256v-1024h-256v256h-256v-256h-768v256h-256zM512 256h256v512h-256v-512zM512 1280h256v256h-256v-256z" />
<glyph unicode="'" horiz-adv-x="512" d="M0 1280v512h256v-512h-256z" />
<glyph unicode="(" horiz-adv-x="1024" d="M0 256v1024h256v256h256v-1536h-256v256h-256zM512 0h256v-256h-256v256zM512 1536v256h256v-256h-256z" />
<glyph unicode=")" horiz-adv-x="1024" d="M0 0h256v-256h-256v256zM0 1536v256h256v-256h-256zM256 0v1536h256v-256h256v-1024h-256v-256h-256z" />
<glyph unicode="*" d="M0 256v512h256v256h-256v512h256v-256h256v512h256v-512h256v256h256v-512h-256v-256h256v-512h-256v256h-256v-512h-256v512h-256v-256h-256z" />
<glyph unicode="+" d="M0 768v256h512v512h256v-512h512v-256h-512v-512h-256v512h-512z" />
<glyph unicode="," horiz-adv-x="768" d="M0 256h256v256h256v-512h-256v-256h-256v512z" />
<glyph unicode="-" horiz-adv-x="1280" d="M0 768v256h1024v-256h-1024z" />
<glyph unicode="." horiz-adv-x="768" d="M0 0v512h512v-512h-512z" />
<glyph unicode="/" horiz-adv-x="1024" d="M0 0v768h256v512h256v517h256v-773h-256v-517h-256v-507h-256z" />
<glyph unicode="0" d="M0 256v1280h256v256h768v-256h256v-1280h-256v-256h-768v256h-256zM512 256h256v1280h-256v-1280z" />
<glyph unicode="1" horiz-adv-x="1024" d="M0 1280v256h256v256h512v-1792h-512v1280h-256z" />
<glyph unicode="2" d="M0 0v768h256v256h512v512h-768v256h1024v-256h256v-512h-256v-256h-512v-512h768v-256h-1280z" />
<glyph unicode="3" d="M0 0v256h768v512h-512v256h512v512h-768v256h1024v-256h256v-512h-256v-256h256v-512h-256v-256h-1024z" />
<glyph unicode="4" d="M0 512v512h256v-256h512v512h-254l-2 2v254h256v256h512v-1792h-512v512h-768zM256 1024v256h256v-256h-256z" />
<glyph unicode="5" d="M0 0v256h768v768h-768v768h1024v-256h-768v-256h768v-256h256v-768h-256v-256h-1024z" />
<glyph unicode="6" d="M0 256v1280h256v256h768v-256h-512v-256h512v-256h256v-768h-256v-256h-768v256h-256zM512 256h256v768h-256v-768z" />
<glyph unicode="7" d="M0 1536v256h1280v-512h-256v-512h-256v-768h-512v768h256v512h256v256h-768z" />
<glyph unicode="8" d="M0 256v512h256v256h-256v512h256v256h768v-256h256v-512h-256v-256h256v-512h-256v-256h-768v256h-256zM512 256h256v512h-256v-512zM512 1024h256v512h-256v-512z" />
<glyph unicode="9" d="M0 768v768h256v256h768v-256h256v-1280h-256v-256h-768v256h512v256h-512v256h-256zM512 768h256v768h-256v-768z" />
<glyph unicode=":" horiz-adv-x="768" d="M0 0v512h512v-512h-512zM0 768v512h512v-512h-512z" />
<glyph unicode=";" horiz-adv-x="768" d="M0 256h256v256h256v-512h-256v-256h-256v512zM0 768v512h512v-512h-512z" />
<glyph unicode="&#x3c;" horiz-adv-x="1280" d="M0 768v256h256v256h256v256h256v256h256v-512h-256v-256h-256v-256h256v-256h256v-512h-256v256h-256v256h-256v256h-256z" />
<glyph unicode="=" horiz-adv-x="1280" d="M0 256v256h1024v-256h-1024zM0 768v256h1024v-256h-1024z" />
<glyph unicode="&#x3e;" horiz-adv-x="1280" d="M0 0v512h256v256h256v256h-256v256h-256v512h256v-256h256v-256h256v-256h256v-256h-256v-256h-256v-256h-256v-256h-256z" />
<glyph unicode="?" d="M0 1536v256h1024v-256h256v-256h-256v-256h-256v-512h-512v512h256v256h256v256h-768zM256 0v256h512v-256h-512z" />
<glyph unicode="@" horiz-adv-x="1792" d="M0 0v1280h256v256h1024v-256h256v-1024h-1024v-256h768v-256h-1024v256h-256zM512 512h256v256h-256v-256zM512 1024h512v256h-512v-256z" />
<glyph unicode="A" d="M0 0v1536h256v256h768v-256h256v-1536h-512v512h-256v-512h-512zM512 768h256v768h-256v-768z" />
<glyph unicode="B" d="M0 0v1792h1024v-256h256v-256h-256v-256h256v-768h-256v-256h-1024zM512 256h256v768h-256v-768zM512 1280h256v256h-256v-256z" />
<glyph unicode="C" d="M0 256v1280h256v256h1024v-256h-768v-1280h768v-256h-1024v256h-256z" />
<glyph unicode="D" d="M0 0v1792h1024v-256h256v-1280h-256v-256h-1024zM512 256h256v1280h-256v-1280z" />
<glyph unicode="E" d="M0 0v1792h1280v-256h-768v-256h512v-256h-512v-768h768v-256h-1280z" />
<glyph unicode="F" d="M0 0v1792h1280v-256h-768v-256h512v-256h-512v-1024h-512z" />
<glyph unicode="G" d="M0 256v1280h256v256h768v-256h-512v-1280h256v768h512v-1024h-1024v256h-256z" />
<glyph unicode="H" d="M0 0v1792h512v-512h256v512h512v-1792h-512v1024h-256v-1024h-512z" />
<glyph unicode="I" horiz-adv-x="768" d="M0 0v1792h512v-1792h-512z" />
<glyph unicode="J" horiz-adv-x="1280" d="M0 0v256h512v1536h512v-1536h-256v-256h-768z" />
<glyph unicode="K" horiz-adv-x="1792" d="M0 0v1792h512v-512h256v256h256v256h512v-256h-256v-256h-256v-256h-256v-256h256v-256h256v-256h256v-256h-512v256h-256v256h-256v-512h-512z" />
<glyph unicode="L" horiz-adv-x="1280" d="M0 0v1792h512v-1536h512v-256h-1024z" />
<glyph unicode="M" horiz-adv-x="2048" d="M0 0v1792h256v-256h256v-256h256v-256h256v256h256v256h256v256h256v-1792h-512v768h-256v-256h-256v256h-256v-768h-512z" />
<glyph unicode="N" horiz-adv-x="1792" d="M0 0v1792h256v-256h256v-256h256v-256h256v768h512v-1792h-256v256h-256v256h-256v256h-256v-768h-512z" />
<glyph unicode="O" horiz-adv-x="1792" d="M0 256v1280h256v256h1024v-256h256v-1280h-256v-256h-1024v256h-256zM512 256h512v1280h-512v-1280z" />
<glyph unicode="P" d="M0 0v1792h1024v-256h256v-768h-256v-256h-512v-512h-512zM512 768h256v768h-256v-768z" />
<glyph unicode="Q" horiz-adv-x="1792" d="M0 256v1280h256v256h1024v-256h256v-1280h-256v-256h256v-256h-512v256h-768v256h-256zM512 256h256v256h256v1024h-512v-1280z" />
<glyph unicode="R" d="M0 0v1792h1024v-256h256v-768h-256v-512h256v-256h-512v512h-256v-512h-512zM512 768h256v768h-256v-768z" />
<glyph unicode="S" horiz-adv-x="1280" d="M0 0v256h512v512h-256v256h-256v512h256v256h768v-256h-512v-512h256v-256h256v-512h-256v-256h-768z" />
<glyph unicode="T" horiz-adv-x="1792" d="M0 1536v256h1536v-256h-512v-1536h-512v1536h-512z" />
<glyph unicode="U" d="M0 256v1536h512v-1536h256v1536h512v-1536h-256v-256h-768v256h-256z" />
<glyph unicode="V" horiz-adv-x="1792" d="M0 1024v768h512v-768h512v768h512v-768h-256v-512h-256v-512h-512v512h-256v512h-256z" />
<glyph unicode="W" horiz-adv-x="2048" d="M0 768v1024h512v-768h256v256h256v-256h256v768h512v-1024h-256v-768h-512v256h-256v-256h-512v768h-256z" />
<glyph unicode="X" horiz-adv-x="1792" d="M0 0v512h256v256h256v256h-256v256h-256v512h512v-512h512v512h512v-512h-256v-256h-256v-256h256v-256h256v-512h-512v512h-512v-512h-512z" />
<glyph unicode="Y" horiz-adv-x="1792" d="M0 1280v512h512v-512h512v512h512v-512h-256v-256h-256v-1024h-512v1024h-256v256h-256z" />
<glyph unicode="Z" d="M0 0v768h256v256h256v256h256v256h-768v256h1280v-768h-256v-256h-256v-256h-256v-256h768v-256h-1280z" />
<glyph unicode="[" horiz-adv-x="1024" d="M0 -256v2048h768v-256h-256v-1536h256v-256h-768z" />
<glyph unicode="\" horiz-adv-x="1024" d="M0 1024v773h256v-517h256v-512h256v-768h-256v507h-256v517h-256z" />
<glyph unicode="]" horiz-adv-x="1024" d="M0 0h256v1536h-256v256h768v-2048h-768v256z" />
<glyph unicode="^" horiz-adv-x="1024" d="M0 1024v512h256v256h256v-256h256v-512h-256v256h-256v-256h-256z" />
<glyph unicode="_" d="M0 0v256h1536v-256h-1536z" />
<glyph unicode="`" horiz-adv-x="768" d="M0 1536v256h256v-256h256v-256h-256v256h-256z" />
<glyph unicode="a" d="M0 256v256h256v256h512v256h-512v256h768v-256h256v-1024h-1024v256h-256zM512 256h256v256h-256v-256z" />
<glyph unicode="b" d="M0 0v1792h512v-512h512v-256h256v-768h-256v-256h-1024zM512 256h256v768h-256v-768z" />
<glyph unicode="c" horiz-adv-x="1280" d="M0 256v768h256v256h768v-256h-512v-768h512v-256h-768v256h-256z" />
<glyph unicode="d" d="M0 256v768h256v256h512v512h512v-1792h-1024v256h-256zM512 256h256v768h-256v-768z" />
<glyph unicode="e" d="M0 256v768h256v256h768v-256h256v-512h-768v-256h768v-256h-1024v256h-256zM512 768h256v256h-256v-256z" />
<glyph unicode="f" horiz-adv-x="1024" d="M0 0v1536h256v256h512v-256h-256v-256h256v-256h-256v-1024h-512z" />
<glyph unicode="g" d="M0 512v512h256v256h1024v-1280h-256v-256h-768v256h512v256h-512v256h-256zM512 512h256v512h-256v-512z" />
<glyph unicode="h" d="M0 0v1792h512v-512h512v-256h256v-1024h-512v1024h-256v-1024h-512z" />
<glyph unicode="i" horiz-adv-x="768" d="M0 0v1280h512v-1280h-512zM0 1536v256h512v-256h-512z" />
<glyph unicode="j" horiz-adv-x="1024" d="M0 0h256v1280h512v-1280h-256v-256h-512v256zM256 1536v256h512v-256h-512z" />
<glyph unicode="k" d="M0 0v1792h512v-768h256v256h512v-256h-256v-256h-256v-256h256v-256h256v-256h-512v256h-256v-256h-512z" />
<glyph unicode="l" horiz-adv-x="768" d="M0 0v1792h512v-1792h-512z" />
<glyph unicode="m" horiz-adv-x="2304" d="M0 0v1280h1792v-256h256v-1024h-512v1024h-256v-1024h-512v1024h-256v-1024h-512z" />
<glyph unicode="n" d="M0 0v1280h1024v-256h256v-1024h-512v1024h-256v-1024h-512z" />
<glyph unicode="o" d="M0 256v768h256v256h768v-256h256v-768h-256v-256h-768v256h-256zM512 256h256v768h-256v-768z" />
<glyph unicode="p" d="M0 -256v1536h1024v-256h256v-512h-256v-256h-512v-512h-512zM512 512h256v512h-256v-512z" />
<glyph unicode="q" d="M0 512v512h256v256h1024v-1536h-512v512h-512v256h-256zM512 512h256v512h-256v-512z" />
<glyph unicode="r" horiz-adv-x="1280" d="M0 0v1280h512v-256h256v256h256v-512h-512v-768h-512z" />
<glyph unicode="s" horiz-adv-x="1280" d="M0 0v256h512v256h-512v512h256v256h768v-256h-512v-256h512v-512h-256v-256h-768z" />
<glyph unicode="t" horiz-adv-x="1024" d="M0 256v1536h512v-512h256v-256h-256v-768h256v-256h-512v256h-256z" />
<glyph unicode="u" d="M0 256v1024h512v-1024h256v1024h512v-1280h-1024v256h-256z" />
<glyph unicode="v" d="M0 768v512h512v-512h256v512h512v-512h-256v-512h-256v-256h-256v256h-256v512h-256z" />
<glyph unicode="w" horiz-adv-x="2048" d="M0 512v768h512v-768h256v512h256v-512h256v768h512v-768h-256v-512h-512v256h-256v-256h-512v512h-256z" />
<glyph unicode="x" d="M0 0v512h256v256h-256v512h512v-512h256v512h512v-512h-256v-256h256v-512h-512v512h-256v-512h-512z" />
<glyph unicode="y" d="M0 512v768h512v-768h256v768h512v-1280h-256v-256h-768v256h512v256h-512v256h-256z" />
<glyph unicode="z" d="M0 0v512h256v256h256v256h-512v256h1280v-256h-256v-256h-256v-256h-256v-256h768v-256h-1280z" />
<glyph unicode="{" horiz-adv-x="1024" d="M0 -256v2048h768v-256h-256v-1536h256v-256h-768z" />
<glyph unicode="|" horiz-adv-x="768" d="M0 -256v2048h512v-2048h-512z" />
<glyph unicode="}" horiz-adv-x="1024" d="M0 0h256v1536h-256v256h768v-2048h-768v256z" />
<glyph unicode="~" d="M0 1280v256h256v-256h-256zM256 1536v256h512v-256h256v-256h-512v256h-256zM1024 1536v256h256v-256h-256z" />
<glyph unicode="&#xa1;" horiz-adv-x="768" d="M0 0v1280h512v-1280h-512zM0 1536v256h512v-256h-512z" />
<glyph unicode="&#xa3;" d="M0 0v256h256v256h-256v256h256v768h256v256h768v-256h-512v-768h256v-256h-256v-256h512v-256h-1280z" />
<glyph unicode="&#xa4;" d="M0 0v256h256v-256h-256zM0 512v512h256v256h-256v256h256v-256h768v-256h256v-512h-256v-256h256v-256h-256v256h-768v256h-256zM512 512h256v512h-256v-512zM1024 1280v256h256v-256h-256z" />
<glyph unicode="&#xa5;" horiz-adv-x="1792" d="M0 512v256h512v256h-512v256h256v256h-256v256h512v-256h512v256h512v-256h-256v-256h256v-256h-512v-256h512v-256h-512v-512h-512v512h-512z" />
<glyph unicode="&#xa6;" horiz-adv-x="768" d="M0 -256v2048h512v-2048h-512z" />
<glyph unicode="&#xa7;" horiz-adv-x="1280" d="M0 0v256h256v-254l-2 -2h-254zM0 512v1024h256v256h512v-256h-256v-256h256v-256h256v-1024h-256v-256h-512v256h256v256h-256v256h-256zM256 768h256v256h-256v-256zM512 512h256v256h-256v-256zM768 1280v254l2 2h254v-256h-256z" />
<glyph unicode="&#xad;" horiz-adv-x="1280" d="M0 768v256h1024v-256h-1024z" />
<glyph unicode="&#xba;" horiz-adv-x="1024" d="M0 512v256h768v-256h-768zM0 1280v256h256v-256h256v-256h-256v256h-256zM256 1536v256h256v-256h256v-256h-256v256h-256z" />
<glyph unicode="&#xbf;" d="M0 256v256h256v256h256v512h512v-512h-256v-256h-256v-256h768v-256h-1024v256h-256zM512 1536v256h512v-256h-512z" />
<glyph unicode="&#xc0;" d="M0 0v1024h256v256h256v256h256v-256h256v-256h256v-1024h-512v512h-256v-512h-512zM256 1536v256h256v-256h-256zM512 768h256v256h-256v-256z" />
<glyph unicode="&#xc1;" d="M0 0v1024h256v256h256v256h256v-256h256v-256h256v-1024h-512v512h-256v-512h-512zM512 768h256v256h-256v-256zM768 1536v256h256v-256h-256z" />
<glyph unicode="&#xc2;" d="M0 0v1280h256v256h254l2 -2v-254h256v256h-256v256h256v-256h256v-256h256v-1280h-512v512h-256v-512h-512zM512 768h256v256h-256v-256z" />
<glyph unicode="&#xc3;" d="M0 0v1024h256v256h-256v256h254l2 -2v-254h256v256h-256v256h512v-256h256v-512h256v-1024h-512v512h-256v-512h-512zM512 768h256v256h-256v-256zM1024 1536v256h256v-256h-256z" />
<glyph unicode="&#xc4;" d="M0 0v1024h256v256h768v-256h256v-1024h-512v512h-256v-512h-512zM256 1536v256h256v-256h-256zM512 768h256v256h-256v-256zM768 1536v256h256v-256h-256z" />
<glyph unicode="&#xc5;" d="M0 0v1024h256v512h254l2 -2v-254h256v256h-256v256h256v-256h256v-512h256v-1024h-512v512h-256v-512h-512zM512 768h256v256h-256v-256z" />
<glyph unicode="&#xc6;" horiz-adv-x="2048" d="M0 0v1280h256v256h256v256h1280v-256h-512v-512h256v-256h-256v-512h512v-256h-1024v768h-256v-768h-512zM512 1024h256v256h-256v-256z" />
<glyph unicode="&#xc7;" d="M0 256v1280h256v256h1024v-256h-768v-1280h768v-256h-512v-256h-256v256h-256v256h-256z" />
<glyph unicode="&#xc8;" d="M0 0v1280h512v256h256v-256h512v-256h-768v-256h512v-256h-512v-256h768v-256h-1280zM256 1536v256h256v-256h-256z" />
<glyph unicode="&#xc9;" d="M0 0v1280h512v256h256v-256h512v-256h-768v-256h512v-256h-512v-256h768v-256h-1280zM768 1536v256h256v-256h-256z" />
<glyph unicode="&#xca;" d="M0 0v1280h256v256h256v-256h256v256h-256v256h256v-256h256v-256h256v-256h-768v-256h512v-256h-512v-256h768v-256h-1280z" />
<glyph unicode="&#xcb;" d="M0 0v1280h1280v-256h-768v-256h512v-256h-512v-256h768v-256h-1280zM256 1536v256h256v-256h-256zM768 1536v256h256v-256h-256z" />
<glyph unicode="&#xcc;" horiz-adv-x="768" d="M0 0v1280h256v256h256v-1536h-512zM0 1536v256h256v-256h-256z" />
<glyph unicode="&#xcd;" horiz-adv-x="768" d="M0 0v1536h256v-256h256v-1280h-512zM256 1536v256h256v-256h-256z" />
<glyph unicode="&#xce;" horiz-adv-x="1024" d="M0 0v1536h256v-256h256v-1280h-512zM256 1536v256h256v-256h-256zM512 1280v254l2 2h254v-256h-256z" />
<glyph unicode="&#xcf;" horiz-adv-x="1024" d="M0 1536v256h256v-256h-256zM256 0v1280h512v-1280h-512zM512 1536v256h256v-256h-256z" />
<glyph unicode="&#xd1;" d="M0 0v1536h256v-512h256v-256h256v512h-256v256h-254l-2 2v254h512v-256h256v-256h256v-1280h-256v256h-256v256h-256v-512h-512zM1024 1536v256h256v-256h-256z" />
<glyph unicode="&#xd2;" horiz-adv-x="1792" d="M0 256v768h256v256h512v256h256v-256h256v-256h256v-768h-256v-256h-1024v256h-256zM512 256h512v768h-512v-768zM512 1536v256h256v-256h-256z" />
<glyph unicode="&#xd3;" horiz-adv-x="1792" d="M0 256v768h256v256h256v256h256v-256h512v-256h256v-768h-256v-256h-1024v256h-256zM512 256h512v768h-512v-768zM768 1536v256h256v-256h-256z" />
<glyph unicode="&#xd4;" horiz-adv-x="1792" d="M0 256v1024h256v256h254l2 -2v-254h512v256h-512v256h512v-256h256v-256h256v-1024h-256v-256h-1024v256h-256zM512 256h512v768h-512v-768z" />
<glyph unicode="&#xd5;" horiz-adv-x="1792" d="M0 256v768h256v512h254l2 -2v-254h256v256h-256v256h512v-256h256v-512h256v-768h-256v-256h-1024v256h-256zM512 256h512v768h-512v-768zM1280 1536v256h256v-256h-256z" />
<glyph unicode="&#xd6;" horiz-adv-x="1792" d="M0 256v768h256v256h1024v-256h256v-768h-256v-256h-1024v256h-256zM256 1536v256h256v-256h-256zM512 256h512v768h-512v-768zM1024 1536v256h256v-256h-256z" />
<glyph unicode="&#xd8;" horiz-adv-x="1792" d="M0 0v1536h256v256h1280v-1536h-256v-256h-1280zM512 256h512v512h-256v-256h-256v-256zM512 1024h256v256h256v256h-512v-512z" />
<glyph unicode="&#xd9;" d="M0 256v1024h510l2 -2v-1022h256v1024h-256v256h-256v256h256v-256h256v-256h512v-1024h-256v-256h-768v256h-256z" />
<glyph unicode="&#xda;" d="M0 256v1024h510l2 -2v-1022h256v1024h-256v256h256v-256h512v-1024h-256v-256h-768v256h-256zM768 1536v256h256v-256h-256z" />
<glyph unicode="&#xdb;" d="M0 256v1024h256v256h254l2 -2v-1278h256v1280h-256v256h256v-256h256v-256h256v-1024h-256v-256h-768v256h-256z" />
<glyph unicode="&#xdc;" d="M0 256v1024h512v-1024h256v1024h512v-1024h-256v-256h-768v256h-256zM256 1536v256h256v-256h-256zM768 1536v256h256v-256h-256z" />
<glyph unicode="&#xdd;" horiz-adv-x="1792" d="M0 1024v256h512v-256h512v256h-256v256h256v-256h512v-256h-256v-256h-256v-768h-512v768h-256v256h-256zM1024 1536v256h256v-256h-256z" />
<glyph unicode="&#xdf;" d="M0 -256v1792h256v256h768v-256h256v-256h-256v-256h256v-768h-256v-256h-256v1024h-256v-1280h-512zM512 1280h256v256h-256v-256z" />
<glyph unicode="&#xe0;" d="M0 256v256h256v256h512v256h-512v256h512v256h-256v256h256v-256h256v-512h256v-1024h-1024v256h-256zM512 256h256v256h-256v-256z" />
<glyph unicode="&#xe1;" d="M0 256v256h256v256h512v256h-512v256h256v256h256v-256h256v-256h256v-1024h-1024v256h-256zM512 256h256v256h-256v-256zM768 1536v256h256v-256h-256z" />
<glyph unicode="&#xe2;" d="M0 256v256h256v256h512v256h-768v256h256v256h254l2 -2v-254h256v256h-256v256h256v-256h256v-256h256v-1280h-1024v256h-256zM512 256h256v256h-256v-256z" />
<glyph unicode="&#xe3;" d="M0 256v256h256v256h512v256h-512v256h-256v256h254l2 -2v-254h256v256h-256v256h512v-256h256v-512h256v-1024h-1024v256h-256zM512 256h256v256h-256v-256zM1024 1536v256h256v-256h-256z" />
<glyph unicode="&#xe4;" d="M0 256v256h256v256h512v256h-512v256h768v-256h256v-1024h-1024v256h-256zM256 1536v256h256v-256h-256zM512 256h256v256h-256v-256zM768 1536v256h256v-256h-256z" />
<glyph unicode="&#xe5;" d="M0 256v256h256v256h512v256h-512v512h254l2 -2v-254h256v256h-256v256h256v-256h256v-256h256v-1280h-1024v256h-256zM512 256h256v256h-256v-256z" />
<glyph unicode="&#xe6;" horiz-adv-x="2048" d="M0 256v256h256v256h512v256h-512v256h1280v-256h-256v-256h256v254l2 2h254v-512h-512v-256h512v-256h-1536v256h-256zM512 256h256v256h-256v-256z" />
<glyph unicode="&#xe7;" horiz-adv-x="1280" d="M0 256v768h256v256h768v-256h-512v-768h512v-256h-256v-256h-256v256h-256v256h-256z" />
<glyph unicode="&#xe8;" d="M0 256v768h256v256h251v256h261v-256h256v-256h256v-512h-768v-256h768v-256h-1024v256h-256zM256 1536v256h256v-256h-256zM512 768h256v256h-256v-256z" />
<glyph unicode="&#xe9;" d="M0 256v768h256v256h251v256h261v-256h256v-256h256v-512h-768v-256h768v-256h-1024v256h-256zM512 768h256v256h-256v-256zM768 1536v256h256v-256h-256z" />
<glyph unicode="&#xea;" d="M0 256v1024h256v256h254l2 -2v-254h256v256h-256v256h256v-256h256v-256h256v-768h-768v-256h768v-256h-1024v256h-256zM512 768h256v256h-256v-256z" />
<glyph unicode="&#xeb;" d="M0 256v768h256v256h768v-256h256v-512h-768v-256h768v-256h-1024v256h-256zM256 1536v256h256v-256h-256zM512 768h256v256h-256v-256zM768 1536v256h256v-256h-256z" />
<glyph unicode="&#xec;" horiz-adv-x="768" d="M0 0v1280h256v256h256v-1536h-512zM0 1536v256h256v-256h-256z" />
<glyph unicode="&#xed;" horiz-adv-x="768" d="M0 0v1536h256v-256h256v-1280h-512zM256 1536v256h256v-256h-256z" />
<glyph unicode="&#xee;" horiz-adv-x="1024" d="M0 0v1536h256v-256h256v-1280h-512zM256 1536v256h256v-256h-256zM512 1280v254l2 2h254v-256h-256z" />
<glyph unicode="&#xef;" horiz-adv-x="1024" d="M0 1536v256h256v-256h-256zM256 0v1280h512v-1280h-512zM512 1536v256h256v-256h-256z" />
<glyph unicode="&#xf1;" d="M0 0v1536h254l2 -2v-254h256v256h-256v256h512v-256h256v-512h256v-1024h-512v1024h-256v-1024h-512zM1024 1536v256h256v-256h-256z" />
<glyph unicode="&#xf2;" d="M0 256v768h256v256h256v256h256v-256h256v-256h256v-768h-256v-256h-768v256h-256zM256 1536v256h256v-256h-256zM512 256h256v768h-256v-768z" />
<glyph unicode="&#xf3;" d="M0 256v768h256v256h256v256h256v-256h256v-256h256v-768h-256v-256h-768v256h-256zM512 256h256v768h-256v-768zM768 1536v256h256v-256h-256z" />
<glyph unicode="&#xf4;" d="M0 256v1024h256v256h254l2 -2v-254h256v256h-256v256h256v-256h256v-256h256v-1024h-256v-256h-768v256h-256zM512 256h256v768h-256v-768z" />
<glyph unicode="&#xf5;" d="M0 256v768h256v256h-256v256h254l2 -2v-254h256v256h-256v256h512v-256h256v-512h256v-768h-256v-256h-768v256h-256zM512 256h256v768h-256v-768zM1024 1536v256h256v-256h-256z" />
<glyph unicode="&#xf6;" d="M0 256v768h256v256h768v-256h256v-768h-256v-256h-768v256h-256zM256 1536v256h256v-256h-256zM512 256h256v768h-256v-768zM768 1536v256h256v-256h-256z" />
<glyph unicode="&#xf8;" d="M0 0v1024h256v256h1024v-1024h-256v-256h-1024zM512 256h256v256h-256v-256zM512 768h256v256h-256v-256z" />
<glyph unicode="&#xf9;" d="M0 256v1024h510l2 -2v-1022h256v1024h-256v256h-256v256h256v-256h256v-256h512v-1280h-1024v256h-256z" />
<glyph unicode="&#xfa;" d="M0 256v1024h510l2 -2v-1022h256v1024h-256v256h256v-256h512v-1280h-1024v256h-256zM768 1536v256h256v-256h-256z" />
<glyph unicode="&#xfb;" d="M0 256v1024h256v256h254l2 -2v-1278h256v1280h-256v256h256v-256h256v-256h256v-1280h-1024v256h-256z" />
<glyph unicode="&#xfc;" d="M0 256v1024h512v-1024h256v1024h512v-1280h-1024v256h-256zM256 1536v256h256v-256h-256zM768 1536v256h256v-256h-256z" />
<glyph unicode="&#xfd;" d="M0 512v768h510l2 -2v-766h256v768h512v-1280h-256v-256h-768v256h512v256h-512v256h-256zM512 1280v256h256v-256h-256zM768 1536v256h256v-256h-256z" />
<glyph unicode="&#xff;" d="M0 512v768h512v-768h256v768h512v-1280h-256v-256h-768v256h512v256h-512v256h-256zM256 1536v256h256v-256h-256zM768 1536v256h256v-256h-256z" />
<glyph unicode="&#x178;" horiz-adv-x="1792" d="M0 1024v256h512v-256h512v256h512v-256h-256v-256h-256v-768h-512v768h-256v256h-256zM256 1536v256h256v-256h-256zM1024 1536v256h256v-256h-256z" />
<glyph unicode="&#x2c6;" horiz-adv-x="1024" d="M0 1024v512h256v256h256v-256h256v-512h-256v256h-256v-256h-256z" />
<glyph unicode="&#x2000;" horiz-adv-x="898" />
<glyph unicode="&#x2001;" horiz-adv-x="1797" />
<glyph unicode="&#x2002;" horiz-adv-x="898" />
<glyph unicode="&#x2003;" horiz-adv-x="1797" />
<glyph unicode="&#x2004;" horiz-adv-x="599" />
<glyph unicode="&#x2005;" horiz-adv-x="449" />
<glyph unicode="&#x2006;" horiz-adv-x="299" />
<glyph unicode="&#x2007;" horiz-adv-x="299" />
<glyph unicode="&#x2008;" horiz-adv-x="224" />
<glyph unicode="&#x2009;" horiz-adv-x="359" />
<glyph unicode="&#x200a;" horiz-adv-x="99" />
<glyph unicode="&#x2010;" horiz-adv-x="1280" d="M0 768v256h1024v-256h-1024z" />
<glyph unicode="&#x2011;" horiz-adv-x="1280" d="M0 768v256h1024v-256h-1024z" />
<glyph unicode="&#x2012;" horiz-adv-x="1280" d="M0 768v256h1024v-256h-1024z" />
<glyph unicode="&#x2013;" horiz-adv-x="1280" d="M0 768v256h1024v-256h-1024z" />
<glyph unicode="&#x2014;" horiz-adv-x="2304" d="M0 768v256h2048v-256h-2048z" />
<glyph unicode="&#x2019;" horiz-adv-x="512" d="M0 1280v512h256v-512h-256z" />
<glyph unicode="&#x202f;" horiz-adv-x="359" />
<glyph unicode="&#x205f;" horiz-adv-x="449" />
<glyph unicode="&#x20ac;" horiz-adv-x="1792" d="M0 512v512h256v256h256v-256h768v-256h-256v-256h-512v-256h768v-256h-768v256h-256v256h-256zM512 1280v256h768v-256h-768zM1280 256v256h256v-256h-256zM1280 1024v254l2 2h254v-256h-256z" />
<glyph unicode="&#x25fc;" horiz-adv-x="1280" d="M0 0v1280h1280v-1280h-1280z" />
</font>
</defs>
</svg>
